<?xml version="1.0" encoding="UTF-8" standalone="no"?>
<!DOCTYPE svg PUBLIC "-//W3C//DTD SVG 1.1//EN" "http://www.w3.org/Graphics/SVG/1.1/DTD/svg11.dtd">
<svg width="100%" height="100%" viewBox="0 0 64 64" version="1.1" xmlns="http://www.w3.org/2000/svg" xmlns:xlink="http://www.w3.org/1999/xlink" xml:space="preserve" xmlns:serif="http://www.serif.com/" style="fill-rule:evenodd;clip-rule:evenodd;stroke-linejoin:round;stroke-miterlimit:2;">
    <g transform="matrix(1,0,0,0.992248,0,0)">
        <path d="M64,16.125L64,48.375C64,57.275 56.831,64.5 48,64.5L16,64.5C7.169,64.5 0,57.275 0,48.375L0,16.125C0,7.225 7.169,0 16,0L48,0C56.831,0 64,7.225 64,16.125Z"/>
    </g>
    <g transform="matrix(1,0,0,1,-21.7031,-3.03125)">
        <path d="M34.948,52L27.177,52L33.878,18.57L41.649,18.57L40.17,26L40.535,26C41.747,23.405 43.187,21.39 44.856,19.955C46.525,18.52 48.615,17.802 51.124,17.802C53.579,17.802 55.461,18.528 56.771,19.98C58.081,21.431 58.789,23.438 58.895,26L59.233,26C60.433,23.495 61.895,21.503 63.619,20.023C65.343,18.542 67.511,17.802 70.124,17.802C72.687,17.802 74.631,18.569 75.958,20.103C77.285,21.636 77.948,23.763 77.948,26.484C77.948,27.365 77.886,28.247 77.761,29.132C77.637,30.016 77.475,30.924 77.274,31.855L74.525,45.663L78.295,45.663L77.057,52L71.591,52C70.01,52 68.776,51.603 67.887,50.811C66.999,50.018 66.555,48.912 66.555,47.495C66.555,47.161 66.576,46.847 66.619,46.552C66.662,46.257 66.704,46.006 66.747,45.797L69.503,31.9C69.631,31.29 69.742,30.686 69.836,30.089C69.931,29.492 69.978,28.922 69.978,28.38C69.978,27.142 69.7,26.17 69.145,25.463C68.59,24.756 67.709,24.403 66.501,24.403C65.507,24.403 64.559,24.669 63.656,25.2C62.754,25.732 61.922,26.431 61.159,27.297C60.363,28.214 59.658,29.32 59.044,30.615C58.43,31.91 58.01,33.165 57.784,34.38L54.253,52L46.482,52L50.488,31.919C50.616,31.309 50.719,30.699 50.798,30.089C50.877,29.479 50.917,28.912 50.917,28.387C50.917,27.132 50.649,26.154 50.113,25.453C49.577,24.753 48.685,24.403 47.437,24.403C46.358,24.403 45.357,24.675 44.436,25.22C43.515,25.764 42.692,26.465 41.967,27.324C41.103,28.308 40.37,29.41 39.767,30.63C39.164,31.85 38.735,33.1 38.479,34.38L34.948,52Z" style="fill:white;fill-rule:nonzero;"/>
    </g>
</svg>
